<svg width="512" height="512" viewBox="0 0 512 512" fill="none" xmlns="http://www.w3.org/2000/svg">
<rect width="512" height="512" fill="#7CC6FE"/>
<path d="M365.688 295.055C365.688 311.461 362.888 326.435 357.289 339.977C351.69 353.518 344.073 365.172 334.438 374.938C324.802 384.573 313.474 392.06 300.453 397.398C287.562 402.737 273.695 405.406 258.852 405.406C244.138 405.406 230.271 402.672 217.25 397.203C204.359 391.734 193.031 384.117 183.266 374.352C173.63 364.586 166.013 352.997 160.414 339.586C154.815 326.044 152.016 311.201 152.016 295.055V109.117H205.531V206.773C208.396 203.128 211.846 199.872 215.883 197.008C220.049 194.143 224.477 191.799 229.164 189.977C233.982 188.154 238.93 186.786 244.008 185.875C249.086 184.833 254.034 184.312 258.852 184.312C273.695 184.312 287.562 187.112 300.453 192.711C313.474 198.18 324.802 205.862 334.438 215.758C344.073 225.654 351.69 237.372 357.289 250.914C362.888 264.326 365.688 279.039 365.688 295.055ZM311.977 295.055C311.977 286.982 310.544 279.495 307.68 272.594C304.945 265.562 301.169 259.508 296.352 254.43C291.534 249.352 285.87 245.38 279.359 242.516C272.979 239.651 266.143 238.219 258.852 238.219C251.56 238.219 244.659 239.846 238.148 243.102C231.768 246.227 226.169 250.458 221.352 255.797C216.534 261.005 212.758 267.06 210.023 273.961C207.289 280.732 205.922 287.763 205.922 295.055C205.922 303.128 207.289 310.615 210.023 317.516C212.758 324.417 216.534 330.406 221.352 335.484C226.169 340.562 231.768 344.599 238.148 347.594C244.659 350.458 251.56 351.891 258.852 351.891C266.143 351.891 272.979 350.458 279.359 347.594C285.87 344.599 291.534 340.562 296.352 335.484C301.169 330.406 304.945 324.417 307.68 317.516C310.544 310.615 311.977 303.128 311.977 295.055Z" fill="black"/>
</svg>
