<svg width="48" height="48" viewBox="0 0 48 48" fill="none" xmlns="http://www.w3.org/2000/svg">
<rect width="48" height="48" fill="#7CC6FE"/>
<path d="M33.6719 27.9199C33.6719 29.3965 33.4199 30.7441 32.916 31.9629C32.4121 33.1816 31.7266 34.2305 30.8594 35.1094C29.9922 35.9766 28.9727 36.6504 27.8008 37.1309C26.6406 37.6113 25.3926 37.8516 24.0566 37.8516C22.7324 37.8516 21.4844 37.6055 20.3125 37.1133C19.1523 36.6211 18.1328 35.9355 17.2539 35.0566C16.3867 34.1777 15.7012 33.1348 15.1973 31.9277C14.6934 30.709 14.4414 29.373 14.4414 27.9199V11.1855H19.2578V19.9746C19.5156 19.6465 19.8262 19.3535 20.1895 19.0957C20.5645 18.8379 20.9629 18.627 21.3848 18.4629C21.8184 18.2988 22.2637 18.1758 22.7207 18.0938C23.1777 18 23.623 17.9531 24.0566 17.9531C25.3926 17.9531 26.6406 18.2051 27.8008 18.709C28.9727 19.2012 29.9922 19.8926 30.8594 20.7832C31.7266 21.6738 32.4121 22.7285 32.916 23.9473C33.4199 25.1543 33.6719 26.4785 33.6719 27.9199ZM28.8379 27.9199C28.8379 27.1934 28.709 26.5195 28.4512 25.8984C28.2051 25.2656 27.8652 24.7207 27.4316 24.2637C26.998 23.8066 26.4883 23.4492 25.9023 23.1914C25.3281 22.9336 24.7129 22.8047 24.0566 22.8047C23.4004 22.8047 22.7793 22.9512 22.1934 23.2441C21.6191 23.5254 21.1152 23.9062 20.6816 24.3867C20.248 24.8555 19.9082 25.4004 19.6621 26.0215C19.416 26.6309 19.293 27.2637 19.293 27.9199C19.293 28.6465 19.416 29.3203 19.6621 29.9414C19.9082 30.5625 20.248 31.1016 20.6816 31.5586C21.1152 32.0156 21.6191 32.3789 22.1934 32.6484C22.7793 32.9062 23.4004 33.0352 24.0566 33.0352C24.7129 33.0352 25.3281 32.9062 25.9023 32.6484C26.4883 32.3789 26.998 32.0156 27.4316 31.5586C27.8652 31.1016 28.2051 30.5625 28.4512 29.9414C28.709 29.3203 28.8379 28.6465 28.8379 27.9199Z" fill="black"/>
</svg>
