<svg width="24" height="24" viewBox="0 0 24 24" fill="none" xmlns="http://www.w3.org/2000/svg">
<rect y="2" width="24" height="20" rx="3" fill="#4F5660"/>
<path d="M10.4082 9.0957C10.4082 9.20898 10.4023 9.30664 10.3906 9.38867C10.3828 9.4707 10.3691 9.53711 10.3496 9.58789C10.334 9.63477 10.3125 9.66797 10.2852 9.6875C10.2617 9.70703 10.2324 9.7168 10.1973 9.7168C10.1465 9.7168 10.0645 9.68164 9.95117 9.61133C9.83789 9.54102 9.6875 9.46484 9.5 9.38281C9.3125 9.30078 9.08789 9.22461 8.82617 9.1543C8.56836 9.08398 8.26758 9.04883 7.92383 9.04883C7.55664 9.04883 7.22461 9.11328 6.92773 9.24219C6.63086 9.36719 6.37695 9.54688 6.16602 9.78125C5.95508 10.0117 5.79297 10.291 5.67969 10.6191C5.56641 10.9434 5.50977 11.3027 5.50977 11.6973C5.50977 12.1309 5.56641 12.5137 5.67969 12.8457C5.79688 13.1738 5.95898 13.4492 6.16602 13.6719C6.37305 13.8945 6.62109 14.0625 6.91016 14.1758C7.20312 14.2891 7.52539 14.3457 7.87695 14.3457C8.04883 14.3457 8.21875 14.3262 8.38672 14.2871C8.55469 14.248 8.71094 14.1895 8.85547 14.1113V12.3535H7.41992C7.34961 12.3535 7.29492 12.3105 7.25586 12.2246C7.2168 12.1348 7.19727 11.9844 7.19727 11.7734C7.19727 11.6641 7.20117 11.5723 7.20898 11.498C7.2207 11.4238 7.23633 11.3652 7.25586 11.3223C7.27539 11.2754 7.29883 11.2422 7.32617 11.2227C7.35352 11.1992 7.38477 11.1875 7.41992 11.1875H9.98047C10.043 11.1875 10.0977 11.1992 10.1445 11.2227C10.1953 11.2422 10.2383 11.2734 10.2734 11.3164C10.3125 11.3594 10.3418 11.4121 10.3613 11.4746C10.3809 11.5332 10.3906 11.6016 10.3906 11.6797V14.6973C10.3906 14.8145 10.3691 14.918 10.3262 15.0078C10.2871 15.0938 10.2031 15.1621 10.0742 15.2129C9.94922 15.2637 9.79297 15.3164 9.60547 15.3711C9.41797 15.4258 9.22266 15.4727 9.01953 15.5117C8.82031 15.5508 8.61719 15.5801 8.41016 15.5996C8.20703 15.6191 8.00195 15.6289 7.79492 15.6289C7.18945 15.6289 6.64648 15.543 6.16602 15.3711C5.68945 15.1953 5.28516 14.9434 4.95312 14.6152C4.62109 14.2832 4.36719 13.8809 4.19141 13.4082C4.01562 12.9316 3.92773 12.3926 3.92773 11.791C3.92773 11.1699 4.02148 10.6133 4.20898 10.1211C4.39648 9.625 4.66211 9.20508 5.00586 8.86133C5.34961 8.51367 5.76367 8.24805 6.24805 8.06445C6.73633 7.88086 7.2793 7.78906 7.87695 7.78906C8.20508 7.78906 8.50391 7.8125 8.77344 7.85938C9.04297 7.90234 9.27734 7.95703 9.47656 8.02344C9.67969 8.08594 9.84766 8.1543 9.98047 8.22852C10.1133 8.30273 10.2051 8.36719 10.2559 8.42188C10.3105 8.47656 10.3496 8.55469 10.373 8.65625C10.3965 8.75391 10.4082 8.90039 10.4082 9.0957ZM13.5254 15.2891C13.5254 15.3281 13.5117 15.3633 13.4844 15.3945C13.4609 15.4258 13.4199 15.4512 13.3613 15.4707C13.3027 15.4902 13.2246 15.5059 13.127 15.5176C13.0293 15.5293 12.9043 15.5352 12.752 15.5352C12.6035 15.5352 12.4785 15.5293 12.377 15.5176C12.2793 15.5059 12.2012 15.4902 12.1426 15.4707C12.084 15.4512 12.041 15.4258 12.0137 15.3945C11.9902 15.3633 11.9785 15.3281 11.9785 15.2891V8.12891C11.9785 8.08984 11.9902 8.05469 12.0137 8.02344C12.041 7.99219 12.084 7.9668 12.1426 7.94727C12.2051 7.92773 12.2852 7.91211 12.3828 7.90039C12.4805 7.88867 12.6035 7.88281 12.752 7.88281C12.9043 7.88281 13.0293 7.88867 13.127 7.90039C13.2246 7.91211 13.3027 7.92773 13.3613 7.94727C13.4199 7.9668 13.4609 7.99219 13.4844 8.02344C13.5117 8.05469 13.5254 8.08984 13.5254 8.12891V15.2891ZM19.4316 8.55078C19.4316 8.66797 19.4258 8.76758 19.4141 8.84961C19.4062 8.92773 19.3906 8.99023 19.3672 9.03711C19.3477 9.08398 19.3242 9.11914 19.2969 9.14258C19.2695 9.16602 19.2383 9.17773 19.2031 9.17773H16.7246V11.2168H19.0508C19.0859 11.2168 19.1172 11.2266 19.1445 11.2461C19.1719 11.2656 19.1953 11.2988 19.2148 11.3457C19.2383 11.3926 19.2539 11.4551 19.2617 11.5332C19.2734 11.6113 19.2793 11.709 19.2793 11.8262C19.2793 11.9434 19.2734 12.041 19.2617 12.1191C19.2539 12.1973 19.2383 12.2617 19.2148 12.3125C19.1953 12.3633 19.1719 12.4004 19.1445 12.4238C19.1172 12.4434 19.0859 12.4531 19.0508 12.4531H16.7246V15.2773C16.7246 15.3203 16.7129 15.3574 16.6895 15.3887C16.666 15.4199 16.623 15.4473 16.5605 15.4707C16.502 15.4902 16.4238 15.5059 16.3262 15.5176C16.2285 15.5293 16.1035 15.5352 15.9512 15.5352C15.8027 15.5352 15.6777 15.5293 15.5762 15.5176C15.4785 15.5059 15.4004 15.4902 15.3418 15.4707C15.2832 15.4473 15.2402 15.4199 15.2129 15.3887C15.1895 15.3574 15.1777 15.3203 15.1777 15.2773V8.4043C15.1777 8.23242 15.2207 8.10938 15.3066 8.03516C15.3965 7.95703 15.5059 7.91797 15.6348 7.91797H19.2031C19.2383 7.91797 19.2695 7.92969 19.2969 7.95312C19.3242 7.97266 19.3477 8.00781 19.3672 8.05859C19.3906 8.10547 19.4062 8.16992 19.4141 8.25195C19.4258 8.33398 19.4316 8.43359 19.4316 8.55078Z" fill="#E5E7EB"/>
</svg>
