<svg width="512" height="512" viewBox="0 0 512 512" fill="none" xmlns="http://www.w3.org/2000/svg">
<path d="M320 177.5V249.5C320 256.125 314.625 261.5 308 261.5H204C197.375 261.5 192 256.125 192 249.5V177.5C192 170.875 197.375 165.5 204 165.5H226L229.075 157.275C230.825 152.6 235.3 149.5 240.3 149.5H271.675C276.675 149.5 281.15 152.6 282.9 157.275L286 165.5H308C314.625 165.5 320 170.875 320 177.5ZM286 213.5C286 196.95 272.55 183.5 256 183.5C239.45 183.5 226 196.95 226 213.5C226 230.05 239.45 243.5 256 243.5C272.55 243.5 286 230.05 286 213.5ZM278 213.5C278 225.625 268.125 235.5 256 235.5C243.875 235.5 234 225.625 234 213.5C234 201.375 243.875 191.5 256 191.5C268.125 191.5 278 201.375 278 213.5Z" fill="black"/>
<path d="M160.68 300.1H170.04V332.644C170.04 335.908 169.608 338.716 168.744 341.068C167.88 343.42 166.68 345.364 165.144 346.9C163.608 348.436 161.736 349.564 159.528 350.284C157.32 351.004 154.896 351.364 152.256 351.364C139.488 351.364 133.104 345.532 133.104 333.868V300.1H142.968V331.924C142.968 333.892 143.136 335.572 143.472 336.964C143.856 338.308 144.432 339.412 145.2 340.276C145.968 341.092 146.928 341.692 148.08 342.076C149.232 342.412 150.576 342.58 152.112 342.58C155.136 342.58 157.32 341.74 158.664 340.06C160.008 338.38 160.68 335.668 160.68 331.924V300.1ZM178.461 300.604C180.477 300.22 182.685 299.932 185.085 299.74C187.533 299.5 189.957 299.38 192.357 299.38C194.853 299.38 197.349 299.596 199.845 300.028C202.389 300.412 204.669 301.228 206.685 302.476C208.701 303.676 210.333 305.38 211.581 307.588C212.877 309.748 213.525 312.58 213.525 316.084C213.525 319.252 212.973 321.94 211.869 324.148C210.765 326.308 209.301 328.084 207.477 329.476C205.653 330.868 203.565 331.876 201.213 332.5C198.909 333.124 196.509 333.436 194.013 333.436C193.773 333.436 193.389 333.436 192.861 333.436C192.333 333.436 191.781 333.436 191.205 333.436C190.629 333.388 190.053 333.34 189.477 333.292C188.949 333.244 188.565 333.196 188.325 333.148V350.5H178.461V300.604ZM193.149 307.876C192.189 307.876 191.277 307.924 190.413 308.02C189.549 308.068 188.853 308.14 188.325 308.236V324.58C188.517 324.628 188.805 324.676 189.189 324.724C189.573 324.772 189.981 324.82 190.413 324.868C190.845 324.868 191.253 324.868 191.637 324.868C192.069 324.868 192.381 324.868 192.573 324.868C193.869 324.868 195.141 324.748 196.389 324.508C197.685 324.268 198.837 323.836 199.845 323.212C200.853 322.54 201.645 321.628 202.221 320.476C202.845 319.324 203.157 317.812 203.157 315.94C203.157 314.356 202.869 313.06 202.293 312.052C201.717 310.996 200.949 310.156 199.989 309.532C199.077 308.908 198.021 308.476 196.821 308.236C195.621 307.996 194.397 307.876 193.149 307.876ZM251.56 350.5H219.664V300.1H229.528V341.716H251.56V350.5ZM248.384 325.3C248.384 316.9 250.232 310.444 253.928 305.932C257.624 301.372 262.904 299.092 269.768 299.092C273.368 299.092 276.512 299.716 279.2 300.964C281.888 302.212 284.12 303.988 285.896 306.292C287.672 308.596 288.992 311.356 289.856 314.572C290.72 317.788 291.152 321.364 291.152 325.3C291.152 333.7 289.28 340.18 285.536 344.74C281.84 349.252 276.584 351.508 269.768 351.508C266.12 351.508 262.952 350.884 260.264 349.636C257.576 348.388 255.344 346.612 253.568 344.308C251.84 342.004 250.544 339.244 249.68 336.028C248.816 332.812 248.384 329.236 248.384 325.3ZM258.752 325.3C258.752 327.844 258.968 330.196 259.4 332.356C259.832 334.468 260.48 336.292 261.344 337.828C262.256 339.364 263.408 340.564 264.8 341.428C266.192 342.292 267.848 342.724 269.768 342.724C273.272 342.724 275.984 341.356 277.904 338.62C279.824 335.884 280.784 331.444 280.784 325.3C280.784 322.852 280.568 320.572 280.136 318.46C279.752 316.348 279.128 314.5 278.264 312.916C277.4 311.332 276.272 310.108 274.88 309.244C273.488 308.332 271.784 307.876 269.768 307.876C266.264 307.876 263.552 309.292 261.632 312.124C259.712 314.908 258.752 319.3 258.752 325.3ZM321.004 339.34H305.524L301.708 350.5H291.844L309.988 299.74H317.26L335.404 350.5H325.036L321.004 339.34ZM308.044 331.42H318.844L315.1 320.188L313.588 312.268H313.228L311.716 320.26L308.044 331.42ZM339.758 300.1C340.766 299.956 341.894 299.836 343.142 299.74C344.438 299.644 345.758 299.572 347.102 299.524C348.446 299.476 349.742 299.452 350.99 299.452C352.286 299.404 353.438 299.38 354.445 299.38C358.91 299.38 362.726 300.004 365.894 301.252C369.062 302.5 371.63 304.252 373.598 306.508C375.566 308.764 377.006 311.452 377.918 314.572C378.83 317.692 379.286 321.124 379.286 324.868C379.286 328.276 378.854 331.564 377.99 334.732C377.126 337.9 375.686 340.708 373.67 343.156C371.654 345.604 368.99 347.572 365.678 349.06C362.414 350.548 358.358 351.292 353.51 351.292C352.742 351.292 351.71 351.268 350.414 351.22C349.166 351.172 347.846 351.1 346.454 351.004C345.11 350.956 343.814 350.884 342.566 350.788C341.318 350.74 340.382 350.668 339.758 350.572V300.1ZM355.238 308.164C354.182 308.164 353.102 308.188 351.998 308.236C350.942 308.284 350.15 308.356 349.622 308.452V342.22C349.814 342.268 350.126 342.316 350.558 342.364C351.038 342.364 351.542 342.388 352.07 342.436C352.598 342.436 353.102 342.46 353.582 342.508C354.062 342.508 354.422 342.508 354.662 342.508C357.446 342.508 359.75 342.028 361.574 341.068C363.446 340.06 364.91 338.74 365.966 337.108C367.07 335.476 367.838 333.604 368.27 331.492C368.702 329.332 368.918 327.124 368.918 324.868C368.918 322.9 368.726 320.932 368.342 318.964C367.958 316.948 367.238 315.148 366.182 313.564C365.174 311.98 363.782 310.684 362.006 309.676C360.23 308.668 357.974 308.164 355.238 308.164Z" fill="black"/>
<circle cx="256" cy="256" r="248" stroke="black" stroke-width="16" stroke-dasharray="64 64"/>
<circle cx="440" cy="72" r="72" fill="#5865F2"/>
<line x1="440" y1="40" x2="440" y2="104" stroke="white" stroke-width="8"/>
<line x1="408" y1="72" x2="472" y2="72" stroke="white" stroke-width="8"/>
</svg>
